# xmcd CD database file
#
# Track frame offsets:
#	150
#	18410
#	34628
#	48313
#	65184
#	84997
#	102389
#	118912
#	141525
#	158808
#	167053
#	195047
#
# Disc length: 3032 seconds
#
# Revision: 0
# Processed by: cddbd v1.5.1PL0 Copyright (c) Steve Scherf et al.
# Submitted via: CDex 1.51
#
DISCID=9f0bd60c
DTITLE=Eugenio Finardi - Anima Blues
DYEAR=2005
DGENRE=Blues
TTITLE0=Mama left me
TTITLE1=Heart of the country
TTITLE2=Pipe dream
TTITLE3=Holyland
TTITLE4=Long way home
TTITLE5=Marta's dream
TTITLE6=Mojo Philtre
TTITLE7=Estrellita
TTITLE8=Barny ard mama
TTITLE9=Doctor doctor
TTITLE10=Spoonful
TTITLE11=Sweet surrender
EXTD=YEAR: 2005
EXTT0=
EXTT1=
EXTT2=
EXTT3=
EXTT4=
EXTT5=
EXTT6=
EXTT7=
EXTT8=
EXTT9=
EXTT10=
EXTT11=
PLAYORDER=
